<?xml version="1.0" standalone="no"?>
<!DOCTYPE svg PUBLIC "-//W3C//DTD SVG 20010904//EN"
 "http://www.w3.org/TR/2001/REC-SVG-20010904/DTD/svg10.dtd">
<svg version="1.0" xmlns="http://www.w3.org/2000/svg"
 width="512.000000pt" height="512.000000pt" viewBox="0 0 512.000000 512.000000"
 preserveAspectRatio="xMidYMid meet">

<g transform="translate(0.000000,512.000000) scale(0.100000,-0.100000)"
fill="#000000" stroke="none">
<path d="M540 4665 c-88 -25 -137 -60 -271 -194 -164 -165 -184 -203 -184
-351 0 -178 -50 -117 719 -887 l671 -673 -671 -673 c-598 -599 -673 -678 -694
-727 -44 -107 -42 -230 7 -330 37 -77 266 -306 343 -343 122 -59 250 -58 361
5 40 22 280 256 960 937 1038 1038 964 951 964 1131 0 180 72 95 -949 1118
-535 536 -914 909 -949 932 -32 22 -75 44 -95 50 -66 19 -154 21 -212 5z m190
-166 c35 -15 244 -219 928 -902 504 -504 895 -901 910 -927 38 -64 38 -156 0
-220 -15 -26 -406 -423 -910 -927 -684 -683 -893 -887 -928 -902 -58 -26 -132
-26 -190 0 -50 23 -257 224 -284 276 -24 48 -31 116 -16 170 12 45 59 95 716
753 659 660 704 708 704 740 0 32 -45 80 -704 740 -657 658 -704 708 -716 753
-15 54 -8 122 16 170 27 52 234 253 284 276 58 26 132 26 190 0z"/>
<path d="M2830 4664 c-85 -23 -125 -52 -267 -196 -169 -171 -188 -207 -188
-353 0 -172 -42 -120 724 -887 l666 -668 -666 -667 c-766 -768 -724 -716 -724
-888 0 -149 23 -190 207 -371 121 -119 152 -144 200 -162 113 -42 217 -38 323
15 39 19 248 223 962 936 1045 1045 968 954 968 1137 0 183 77 92 -968 1137
-966 965 -945 946 -1065 972 -68 14 -104 13 -172 -5z"/>
</g>
</svg>
